<?xml version="1.0" encoding="UTF-8"?>
<!DOCTYPE svg PUBLIC "-//W3C//DTD SVG 1.1//EN" "http://www.w3.org/Graphics/SVG/1.1/DTD/svg11.dtd">
<!-- Creator: CorelDRAW 2018 (64-Bit) -->
<svg xmlns="http://www.w3.org/2000/svg" xml:space="preserve" width="1.66666in" height="1.66666in" version="1.1" style="shape-rendering:geometricPrecision; text-rendering:geometricPrecision; image-rendering:optimizeQuality; fill-rule:evenodd; clip-rule:evenodd"
viewBox="0 0 1667 1667"
 xmlns:xlink="http://www.w3.org/1999/xlink">
 <defs>
  <style type="text/css">
   <![CDATA[
    .str1 {stroke:black;stroke-width:53;stroke-miterlimit:2.61313}
    .str0 {stroke:black;stroke-width:53;stroke-linejoin:round;stroke-miterlimit:2.61313}
    .fil0 {fill:none}
    .fil1 {fill:black}
   ]]>
  </style>
 </defs>
 <g id="Layer_x0020_1">
  <metadata id="CorelCorpID_0Corel-Layer"/>
  <path class="fil0 str0" d="M460 347l746 0c33,0 60,24 64,57l93 812 -1059 0 93 -812c4,-33 31,-57 64,-57z"/>
  <path class="fil0 str1" d="M1391 1217l-1115 0 -10 141c-2,32 3,61 16,85 13,24 30,37 49,37l1002 0c20,0 36,-12 49,-37 13,-24 19,-53 16,-85l-10 -141z"/>
  <g>
   <path class="fil1" d="M597 442c20,0 37,16 37,37 0,20 -16,37 -37,37 -20,0 -37,-16 -37,-37 0,-20 16,-37 37,-37z"/>
   <path id="1" class="fil1" d="M597 442c20,0 37,16 37,37 0,20 -16,37 -37,37 -20,0 -37,-16 -37,-37 0,-20 16,-37 37,-37zm11 26l-11 11 0 -16 0 0c-2,1 -9,4 -11,5l11 11 -11 11 0 0c2,0 9,3 11,5l0 0 0 -16 -16 0c1,2 4,9 5,11l22 -22zm5 11l-16 0 11 11c0,-2 3,-9 5,-11zm-31 0l0 0zm5 -11c0,2 -3,9 -5,11l5 -11zm22 0l0 0c-2,0 -9,-3 -11,-5l11 5zm5 11c-1,-2 -4,-9 -5,-11l5 11zm0 0l0 0zm-16 16c2,-1 9,-4 11,-5l-11 5z"/>
  </g>
  <g>
   <path class="fil1" d="M1069 441c21,0 37,17 37,37 0,21 -17,37 -37,37 -21,0 -37,-17 -37,-37 0,-21 17,-37 37,-37z"/>
   <path id="1" class="fil1" d="M1069 441c21,0 37,17 37,37 0,21 -17,37 -37,37 -21,0 -37,-17 -37,-37 0,-21 17,-37 37,-37zm11 27l-11 11 0 -15 0 0c-2,1 -8,4 -11,4l11 11 0 0 -11 -11 0 0c0,2 -3,9 -4,11l15 0 -11 10c0,0 0,0 0,0l11 -11 0 0 0 0 0 0 0 0 0 0 0 0 0 0 0 0 0 0 0 0 11 -11c0,0 0,0 0,0zm-21 21c0,0 0,0 0,0l0 0zm0 0c0,0 0,0 0,0l11 -11 0 0 0 0 0 0 0 0 0 0 15 0c-1,-2 -4,-8 -4,-11l-11 11 11 11c0,-2 3,-9 4,-11l-26 11zm0 0c3,1 9,3 11,5 0,0 0,0 0,0l0 -15 11 11 0 0 -21 0zm-5 -11c1,2 4,8 4,10l-4 -10zm4 -11c0,0 0,0 0,0l0 0zm21 0l0 0 0 0zm0 0c-2,0 -9,-3 -11,-4l11 4zm-11 26c2,-1 8,-4 11,-4l-11 4z"/>
  </g>
  <path class="fil0 str1" d="M597 478c0,-84 6,-350 236,-350 230,0 236,254 236,350"/>
 </g>
</svg>
