<?xml version="1.0" encoding="UTF-8"?>
<!DOCTYPE svg PUBLIC "-//W3C//DTD SVG 1.1//EN" "http://www.w3.org/Graphics/SVG/1.1/DTD/svg11.dtd">
<!-- Creator: CorelDRAW 2018 (64-Bit) -->
<svg xmlns="http://www.w3.org/2000/svg" xml:space="preserve" width="1.66666in" height="1.66666in" version="1.1" style="shape-rendering:geometricPrecision; text-rendering:geometricPrecision; image-rendering:optimizeQuality; fill-rule:evenodd; clip-rule:evenodd"
viewBox="0 0 1667 1667"
 xmlns:xlink="http://www.w3.org/1999/xlink">
 <defs>
  <style type="text/css">
   <![CDATA[
    .fil0 {fill:#323232}
   ]]>
  </style>
 </defs>
 <g id="Layer_x0020_1">
  <metadata id="CorelCorpID_0Corel-Layer"/>
  <path class="fil0" d="M642 1251l541 0c3,62 4,121 4,183 0,42 5,153 -1,185 -6,7 -8,6 -28,6 -270,-3 -553,0 -823,1 -46,0 -256,4 -283,-1l-1 -370c29,-6 554,-3 592,-3zm-649 -836l0 -357c1,-17 3,-24 4,-38l1653 0c9,0 11,3 11,11l0 1617c0,10 -2,10 -4,19l-1657 0c0,-139 -4,-270 -4,-412 0,-138 0,-277 0,-415 0,-141 -4,-271 -4,-412l0 -13zm1243 838c43,-2 361,-5 377,2 7,22 6,355 0,367 -15,8 -347,6 -377,-1 -3,-111 -9,-260 0,-368zm-1190 -37c-6,-26 -1,-353 -1,-410 0,-63 -4,-372 2,-406l322 0c8,42 2,156 2,206 0,74 4,583 -2,610l-323 0zm366 -810c80,-7 169,-3 252,-3l756 -2c41,0 80,3 122,4 72,0 72,-16 71,57 -1,84 -1,168 -1,252 -1,82 -3,165 -3,248 0,54 6,206 -4,249 -27,4 -556,4 -597,4 -98,0 -531,7 -593,-4 -4,-64 -2,-139 -2,-204l-2 -401c0,-64 -6,-138 0,-200zm-232 -39l-135 0 2 -296 18 -2 1545 -9 1 53 4 250 -129 0 -1305 4z"/>
  <path class="fil0" d="M679 851c1,28 23,102 32,130 23,67 34,71 39,84 6,14 0,22 7,37 27,12 33,-20 55,-24l455 0c32,0 64,-6 82,10 38,35 40,18 43,-15 35,-28 75,-105 75,-136 -50,-8 -73,22 -209,-20 -154,-47 -345,-153 -529,-71 -27,12 -20,14 -50,5z"/>
  <path class="fil0" d="M677 795l-1 20c17,66 99,-86 405,15 83,28 309,130 397,76 12,-58 -38,-41 -81,-41 -197,1 -374,-181 -634,-110 -16,4 -31,9 -46,16l-34 15c-10,7 -4,1 -7,9z"/>
  <path class="fil0" d="M676 815l1 -20c-12,-1 -7,4 -10,-7 0,-28 -5,-133 6,-151 9,-16 31,-28 56,-18 26,10 19,31 32,50 57,10 16,-96 -59,-89 -28,3 -49,22 -60,40 -15,26 -10,62 -10,93l0 356c-2,30 -14,12 -16,36l69 1c-10,-42 -18,33 -18,-141l0 -138c3,-20 -3,-12 9,-13z"/>
 </g>
</svg>
